<svg xmlns="http://www.w3.org/2000/svg" width="184" height="20" viewBox="0 0 184 20" role="presentation" aria-hidden="true">
  <g transform="translate(-868 -1355)">
    <g transform="translate(868 1356)">
      <rect width="184" height="2" transform="translate(0 8)" fill="#C9A24A"/>
      <g transform="translate(28 -54.9)">
        <path fill="#C9A24A" d="M 63.9351692199707 73.39999389648438 C 63.24251937866211 73.39999389648438 62.19576644897461 73.39999389648438 62.19576644897461 71.66159057617188 L 62.19576644897461 71.55679321289063 L 61.35548782348633 71.55679321289063 C 60.69835662841797 71.55679321289063 60.16373825073242 71.02242279052734 60.16373825073242 70.3656005859375 L 60.16373825073242 69.63119506835938 C 60.16373825073242 68.97437286376953 60.69835662841797 68.44000244140625 61.35548782348633 68.44000244140625 L 62.19576644897461 68.44000244140625 L 62.19576644897461 65.62399291992188 L 59.90993881225586 65.62399291992188 L 59.90993881225586 66.54959106445313 C 59.90993881225586 67.20641326904297 59.37531661987305 67.74078369140625 58.71818923950195 67.74078369140625 L 57.98319625854492 67.74078369140625 C 57.32606887817383 67.74078369140625 56.79144668579102 67.20641326904297 56.79144668579102 66.54959106445313 L 56.79144668579102 65.62399291992188 L 55.79264831542969 65.62399291992188 C 55.07988739013672 65.62399291992188 54.50000762939453 65.04440307617188 54.50000762939453 64.33198547363281 L 54.50000762939453 63.68399429321289 C 54.50000762939453 62.97157287597656 55.07988739013672 62.39198303222656 55.79264831542969 62.39198303222656 L 56.79144668579102 62.39198303222656 L 56.79144668579102 61.42319488525391 C 56.79144668579102 60.76636505126953 57.32606887817383 60.23199462890625 57.98319625854492 60.23199462890625 L 58.71818923950195 60.23199462890625 C 59.37531661987305 60.23199462890625 59.90993881225586 60.76636505126953 59.90993881225586 61.42319488525391 L 59.90993881225586 62.39198303222656 L 62.19576644897461 62.39198303222656 L 62.19576644897461 59.3887939453125 L 61.35548782348633 59.3887939453125 C 60.69835662841797 59.3887939453125 60.16373825073242 58.85442352294922 60.16373825073242 58.19759368896484 L 60.16373825073242 57.46320343017578 C 60.16373825073242 56.80636215209961 60.69835662841797 56.27199554443359 61.35548782348633 56.27199554443359 L 62.19576644897461 56.27199554443359 L 62.19576644897461 56.13839340209961 C 62.19576644897461 54.39999389648438 63.28460693359375 54.39999389648438 63.9351692199707 54.39999389648438 C 64.62781524658203 54.39999389648438 65.67454528808594 54.39999389648438 65.67454528808594 56.13839340209961 L 65.67454528808594 56.27199554443359 L 66.51482391357422 56.27199554443359 C 67.17195892333984 56.27199554443359 67.70658111572266 56.80636215209961 67.70658111572266 57.46320343017578 L 67.70658111572266 58.19759368896484 C 67.70658111572266 58.85442352294922 67.17195892333984 59.3887939453125 66.51482391357422 59.3887939453125 L 65.67454528808594 59.3887939453125 L 65.67454528808594 62.37759399414063 L 68.090087890625 62.37759399414063 L 68.090087890625 61.40879440307617 C 68.090087890625 60.75990295410156 68.61824035644531 60.23199462890625 69.26741790771484 60.23199462890625 L 70.03123474121094 60.23199462890625 C 70.68042755126953 60.23199462890625 71.20858001708984 60.75990295410156 71.20858001708984 61.40879440307617 L 71.20858001708984 62.37759399414063 L 72.20736694335938 62.37759399414063 C 72.92012786865234 62.37759399414063 73.50000762939453 62.95718383789063 73.50000762939453 63.66959381103516 L 73.50000762939453 64.33200073242188 C 73.50000762939453 64.67415618896484 73.36254119873047 65.00775146484375 73.12284851074219 65.24728393554688 C 72.88323974609375 65.4866943359375 72.549560546875 65.62399291992188 72.20736694335938 65.62399291992188 L 71.20858001708984 65.62399291992188 L 71.20858001708984 66.57838439941406 C 71.20858001708984 67.22727203369141 70.68042755126953 67.75518035888672 70.03123474121094 67.75518035888672 L 69.26741790771484 67.75518035888672 C 68.61824035644531 67.75518035888672 68.090087890625 67.22727203369141 68.090087890625 66.57838439941406 L 68.090087890625 65.60960388183594 L 65.67454528808594 65.60960388183594 L 65.67454528808594 68.44000244140625 L 66.51482391357422 68.44000244140625 C 67.17195892333984 68.44000244140625 67.70658111572266 68.97437286376953 67.70658111572266 69.63119506835938 L 67.70658111572266 70.3656005859375 C 67.70658111572266 71.02242279052734 67.17195892333984 71.55679321289063 66.51482391357422 71.55679321289063 L 65.67454528808594 71.55679321289063 L 65.67454528808594 71.66159057617188 C 65.67454528808594 73.39999389648438 64.58571624755859 73.39999389648438 63.9351692199707 73.39999389648438 Z"/>
        <path fill="#F6EFE1" opacity="0.55" d="M 63.93516540527344 54.89999389648438 C 63.25782012939453 54.89999389648438 62.69577026367188 54.89999389648438 62.69577026367188 56.13839721679688 L 62.69577026367188 56.77199554443359 L 61.35548400878906 56.77199554443359 C 60.96638488769531 56.77199554443359 60.66373443603516 57.08879089355469 60.66373443603516 57.46319580078125 L 60.66373443603516 58.19758605957031 C 60.66373443603516 58.58639526367188 60.98078918457031 58.8887939453125 61.35548400878906 58.8887939453125 L 62.69577026367188 58.8887939453125 L 62.69577026367188 62.89198303222656 L 59.40993499755859 62.89198303222656 L 59.40993499755859 61.42318725585938 C 59.40993499755859 61.03439331054688 59.09288024902344 60.73199462890625 58.71818542480469 60.73199462890625 L 57.98318481445313 60.73199462890625 C 57.59408569335938 60.73199462890625 57.29143524169922 61.04879760742188 57.29143524169922 61.42318725585938 L 57.29143524169922 62.89198303222656 L 55.79264831542969 62.89198303222656 C 55.36029815673828 62.89198303222656 55.00000762939453 63.25199127197266 55.00000762939453 63.68399047851563 L 55.00000762939453 64.33198547363281 C 55.00000762939453 64.76399230957031 55.36029815673828 65.12399291992188 55.79264831542969 65.12399291992188 L 57.29143524169922 65.12399291992188 L 57.29143524169922 66.54959106445313 C 57.29143524169922 66.93838500976563 57.60849761962891 67.24078369140625 57.98320007324219 67.24078369140625 L 58.71818542480469 67.24078369140625 C 59.10728454589844 67.24078369140625 59.40993499755859 66.92399597167969 59.40993499755859 66.54959106445313 L 59.40993499755859 65.12399291992188 L 62.69577026367188 65.12399291992188 L 62.69577026367188 68.94000244140625 L 61.35548400878906 68.94000244140625 C 60.96638488769531 68.94000244140625 60.66373443603516 69.25679016113281 60.66373443603516 69.63119506835938 L 60.66373443603516 70.3656005859375 C 60.66373443603516 70.75439453125 60.98078918457031 71.05679321289063 61.35548400878906 71.05679321289063 L 62.69577026367188 71.05679321289063 L 62.69577026367188 71.66159057617188 C 62.69577026367188 72.89999389648438 63.243408203125 72.89999389648438 63.93516540527344 72.89999389648438 C 64.61250305175781 72.89999389648438 65.17454528808594 72.89999389648438 65.17454528808594 71.66159057617188 L 65.17454528808594 71.05679321289063 L 66.51483154296875 71.05679321289063 C 66.9039306640625 71.05679321289063 67.20657348632813 70.739990234375 67.20657348632813 70.3656005859375 L 67.20657348632813 69.63119506835938 C 67.20657348632813 69.24240112304688 66.8895263671875 68.94000244140625 66.51483154296875 68.94000244140625 L 65.17454528808594 68.94000244140625 L 65.17454528808594 65.10960388183594 L 68.590087890625 65.10960388183594 L 68.590087890625 66.57838439941406 C 68.590087890625 66.95278930664063 68.89273071289063 67.25518798828125 69.26741790771484 67.25518798828125 L 70.03123474121094 67.25518798828125 C 70.40593719482422 67.25518798828125 70.70857238769531 66.95278930664063 70.70857238769531 66.57838439941406 L 70.70857238769531 65.12399291992188 L 72.20736694335938 65.12399291992188 C 72.42354583740234 65.12399291992188 72.62530517578125 65.03759765625 72.76941680908203 64.89360046386719 C 72.91353607177734 64.74958801269531 73.00000762939453 64.54798889160156 73.00000762939453 64.33200073242188 L 73.00000762939453 63.66960144042969 C 73.00000762939453 63.23759460449219 72.63971710205078 62.87759399414063 72.20736694335938 62.87759399414063 L 70.70857238769531 62.87759399414063 L 70.70857238769531 61.40879058837891 C 70.70857238769531 61.03439331054688 70.40593719482422 60.73199462890625 70.03123474121094 60.73199462890625 L 69.26741790771484 60.73199462890625 C 68.89273071289063 60.73199462890625 68.590087890625 61.03439331054688 68.590087890625 61.40879058837891 L 68.590087890625 62.87759399414063 L 65.17454528808594 62.87759399414063 L 65.17454528808594 58.8887939453125 L 66.51483154296875 58.8887939453125 C 66.9039306640625 58.8887939453125 67.20657348632813 58.57199096679688 67.20657348632813 58.19758605957031 L 67.20657348632813 57.46319580078125 C 67.20657348632813 57.07439422607422 66.8895263671875 56.77199554443359 66.51483154296875 56.77199554443359 L 65.17454528808594 56.77199554443359 L 65.17454528808594 56.13839721679688 C 65.17454528808594 54.89999389648438 64.62692260742188 54.89999389648438 63.93516540527344 54.89999389648438 Z"/>
      </g>
    </g>
  </g>
</svg>
